<svg width="120" height="120" viewBox="0 0 120 120" fill="none" xmlns="http://www.w3.org/2000/svg">
<g clip-path="url(#clip0)">
<path d="M50.7158 113.952C50.9606 113.952 51.2026 113.97 51.4418 114.007C52.9736 114.248 54.38 115.37 55.7402 116.455C57.1442 117.574 58.5957 118.732 60 118.732C61.4043 118.732 62.8558 117.574 64.2598 116.455C65.62 115.37 67.0267 114.248 68.5582 114.007C70.1402 113.757 71.8594 114.403 73.5189 115.026C75.2453 115.674 76.8755 116.287 78.1538 115.872C79.4702 115.445 80.4863 113.903 81.4695 112.411C82.4321 110.95 83.4282 109.439 84.8236 108.726C86.2391 108.004 88.0612 108.084 89.8253 108.161C91.676 108.242 93.4246 108.319 94.5241 107.519C95.6316 106.713 96.0984 105.019 96.5919 103.226C97.0591 101.531 97.5422 99.777 98.6591 98.6601C99.7765 97.5429 101.53 97.0598 103.226 96.5926C105.019 96.0988 106.711 95.6324 107.518 94.5248C108.318 93.4256 108.241 91.6768 108.16 89.8253C108.083 88.0625 108.003 86.2399 108.726 84.8244C109.438 83.4289 110.949 82.4329 112.411 81.47C113.902 80.487 115.444 79.4709 115.872 78.1543C116.287 76.8762 115.674 75.2458 115.026 73.5194C114.402 71.8599 113.758 70.1439 114.007 68.5587C114.247 67.0272 115.369 65.6205 116.454 64.2603C117.574 62.8563 118.732 61.4048 118.732 60.0005C118.732 58.5962 117.574 57.1446 116.454 55.7406C115.369 54.3805 114.247 52.9741 114.007 51.4423C113.758 49.8573 114.402 48.1411 115.026 46.4813C115.674 44.7551 116.287 43.1247 115.872 41.8469C115.444 40.5303 113.902 39.514 112.41 38.531C110.949 37.5681 109.438 36.5726 108.726 35.1771C108.003 33.7614 108.083 31.9385 108.16 30.1757C108.241 28.3242 108.318 26.5756 107.518 25.4764C106.712 24.3689 105.019 23.9024 103.226 23.4084C101.53 22.9416 99.7765 22.4585 98.6596 21.3414C97.5422 20.2242 97.0591 18.4708 96.5919 16.7749C96.0984 14.982 95.6316 13.2885 94.5241 12.4825C93.4251 11.6826 91.6768 11.7596 89.8253 11.8406C88.0625 11.9174 86.2386 11.9978 84.8236 11.2747C83.4282 10.5625 82.4321 9.05135 81.4695 7.58987C80.4863 6.09846 79.4702 4.55625 78.1538 4.1288C76.8766 3.71391 75.2453 4.32635 73.5192 4.97462C71.8596 5.59803 70.1413 6.24229 68.5582 5.99368C67.0267 5.75308 65.62 4.63112 64.2598 3.54631C62.8558 2.42675 61.4043 1.26894 60 1.26894C58.5957 1.26894 57.1442 2.42675 55.7402 3.54631C54.38 4.63112 52.9736 5.75308 51.4418 5.99368C49.8574 6.24416 48.1406 5.59803 46.4805 4.97462C44.7544 4.32582 43.1229 3.71338 41.8464 4.1288C40.5298 4.55625 39.5135 6.09846 38.5308 7.58987C37.5676 9.05135 36.5721 10.5625 35.1766 11.2747C33.7606 11.9973 31.9374 11.9171 30.1752 11.8406C28.3237 11.7596 26.5753 11.6832 25.4761 12.4825C24.3683 13.2887 23.9018 14.9822 23.4081 16.7752C22.941 18.4709 22.4579 20.2242 21.3411 21.3414C20.2242 22.4585 18.4704 22.9413 16.7744 23.4084C14.9816 23.9024 13.288 24.3689 12.4821 25.4764C11.6824 26.5754 11.7589 28.3242 11.8401 30.1755C11.9172 31.9385 11.9972 33.7611 11.2743 35.1769C10.562 36.5723 9.05067 37.5681 7.58944 38.5313C6.09795 39.514 4.55572 40.5303 4.12832 41.8469C3.71332 43.1247 4.32576 44.7549 4.97414 46.481C5.59757 48.1411 6.24217 49.8573 5.99313 51.4423C5.75262 52.9741 4.63081 54.3805 3.54584 55.7406C2.4263 57.1446 1.26854 58.5962 1.26854 60.0005C1.26854 61.4048 2.4263 62.8563 3.54584 64.2603C4.63081 65.6205 5.75262 67.0272 5.99313 68.5587C6.24217 70.1439 5.59757 71.8604 4.97414 73.52C4.32576 75.2461 3.71332 76.8762 4.12832 78.1543C4.55572 79.4709 6.09795 80.487 7.58944 81.47C9.05097 82.4329 10.562 83.4287 11.2743 84.8241C11.9972 86.2396 11.9172 88.0628 11.8401 89.8255C11.7589 91.6768 11.6824 93.4256 12.4821 94.5245C13.2883 95.6324 14.9816 96.0988 16.7747 96.5926C18.4704 97.0596 20.2239 97.5427 21.3408 98.6595C22.4579 99.777 22.9407 101.53 23.4081 103.226C23.9018 105.019 24.3681 106.712 25.4757 107.518C26.575 108.318 28.3235 108.242 30.1755 108.16C31.9377 108.085 33.7603 108.004 35.1764 108.726C36.5718 109.439 37.5676 110.95 38.5308 112.411C39.5135 113.903 40.5298 115.445 41.8461 115.872C43.1242 116.286 44.7549 115.675 46.481 115.026C47.8901 114.497 49.3401 113.952 50.7158 113.952ZM60 120C58.152 120 56.5237 118.702 54.9494 117.446C53.6614 116.419 52.4451 115.449 51.2451 115.26C49.99 115.066 48.4333 115.649 46.927 116.214C45.0722 116.911 43.1539 117.631 41.4545 117.079C39.7153 116.514 38.5746 114.783 37.4714 113.109C36.5991 111.785 35.6968 110.416 34.5995 109.856C33.4826 109.286 31.8294 109.359 30.2308 109.428C28.2433 109.516 26.1876 109.606 24.7293 108.544C23.2631 107.476 22.7151 105.487 22.1851 103.563C21.7617 102.026 21.324 100.436 20.444 99.5564C19.5639 98.6766 17.9746 98.2388 16.4377 97.8153C14.5134 97.2855 12.5235 96.7373 11.4564 95.2706C10.3955 93.8132 10.4857 91.7578 10.5726 89.7699C10.6427 88.1713 10.7151 86.5187 10.1445 85.4007C9.58436 84.3036 8.21546 83.4017 6.89159 82.5294C5.21767 81.4261 3.48663 80.2855 2.92179 78.5462C2.3698 76.8458 3.09002 74.9285 3.78662 73.0741C4.35231 71.568 4.93727 70.0108 4.74004 68.7554C4.55155 67.5557 3.58134 66.3391 2.55411 65.0513C1.29851 63.4768 0 61.8485 0 60.0005C0 58.1525 1.29851 56.5242 2.55411 54.9499C3.58134 53.6619 4.55155 52.4456 4.74004 51.2456C4.93727 49.9905 4.35231 48.4333 3.78662 46.9274C3.09002 45.073 2.3698 43.1552 2.92179 41.455C3.48663 39.7158 5.21746 38.5751 6.89126 37.4721C8.21528 36.5996 9.58436 35.6973 10.1445 34.6C10.7151 33.4825 10.6427 31.8294 10.5726 30.2311C10.4857 28.2432 10.3955 26.1878 11.4564 24.73C12.5235 23.2635 14.5134 22.7155 16.4377 22.1856C17.9748 21.7622 19.5641 21.3243 20.4442 20.4445C21.324 19.5642 21.7617 17.975 22.1851 16.4381C22.7151 14.5139 23.2633 12.5239 24.7297 11.457C26.1873 10.3963 28.243 10.4866 30.2306 10.573C31.8294 10.6441 33.4823 10.7157 34.5997 10.145C35.6968 9.58466 36.5991 8.21596 37.4714 6.89189C38.5746 5.21816 39.7153 3.48723 41.4545 2.9221C43.1555 2.37034 45.0722 3.09052 46.9267 3.78716C48.4328 4.3531 49.991 4.93854 51.2451 4.74046C52.4451 4.55199 53.6614 3.58186 54.9494 2.55453C56.5237 1.2989 58.152 0.000495911 60 0.000495911C61.848 0.000495911 63.4763 1.2989 65.0508 2.55453C66.3386 3.58186 67.5552 4.55199 68.7549 4.74046C70.0076 4.938 71.5669 4.3531 73.0733 3.78716C74.9277 3.09078 76.8453 2.37034 78.5455 2.9221C80.2847 3.48723 81.4254 5.2179 82.5284 6.89189C83.4009 8.21569 84.3031 9.58466 85.4003 10.145C86.5187 10.7157 88.1705 10.6441 89.7697 10.573C91.7575 10.4861 93.813 10.3968 95.2702 11.457C96.7365 12.5239 97.285 14.5136 97.8146 16.4378C98.2383 17.975 98.6765 19.5642 99.5565 20.4445C100.437 21.3243 102.026 21.7622 103.563 22.1856C105.487 22.7155 107.477 23.2637 108.544 24.7303C109.605 26.1878 109.515 28.2435 109.428 30.2311C109.357 31.8297 109.285 33.4825 109.855 34.6002C110.416 35.6973 111.785 36.5996 113.109 37.4719C114.782 38.5751 116.514 39.7158 117.078 41.4553C117.631 43.1552 116.91 45.073 116.213 46.9274C115.648 48.4333 115.063 49.9905 115.26 51.2456C115.448 52.4456 116.419 53.6619 117.446 54.9499C118.701 56.5242 120 58.1525 120 60.0005C120 61.8485 118.701 63.4768 117.446 65.0513C116.419 66.3391 115.448 67.5557 115.259 68.7554C115.063 70.0105 115.648 71.5677 116.213 73.0735C116.91 74.928 117.631 76.8458 117.078 78.5462C116.514 80.2855 114.783 81.4261 113.109 82.5294C111.785 83.4017 110.416 84.3036 109.855 85.401C109.285 86.5187 109.357 88.1713 109.428 89.7697C109.515 91.7578 109.605 93.8135 108.543 95.2712C107.476 96.7375 105.487 97.2855 103.563 97.8153C102.026 98.2388 100.436 98.6766 99.556 99.5569C98.6759 100.437 98.2383 102.026 97.8151 103.563C97.285 105.487 96.737 107.477 95.2702 108.545C93.813 109.606 91.7573 109.516 89.7697 109.428C88.1716 109.358 86.5177 109.285 85.4003 109.856C84.3031 110.416 83.4009 111.785 82.5289 113.109C81.4254 114.783 80.2847 116.514 78.5455 117.079C76.8439 117.632 74.9272 116.911 73.073 116.214C71.5672 115.648 70.0095 115.063 68.7549 115.26C67.5552 115.449 66.3386 116.419 65.0508 117.446C63.4763 118.702 61.848 120 60 120Z" fill="#2C9444"/>
<path d="M106.107 35.9779C106.107 35.9779 96.4794 14.9022 70.3734 9.61154C70.3734 9.61154 51.3791 5.01486 32.9922 16.6369C32.9922 16.6369 13.4776 29.3865 10.2686 50.1152C10.2686 50.1152 22.064 53.0641 42.9664 48.6409C63.8686 44.2174 73.3223 40.7484 84.6839 39.5339C84.6839 39.5339 96.3928 38.1462 104.632 39.1003C104.632 39.1003 107.494 39.4473 107.494 38.6667C107.494 37.8861 104.025 37.7995 104.025 37.7995C104.025 37.7995 91.2757 36.0648 66.3836 41.7891C66.3836 41.7891 46.869 47.0797 30.0433 48.554C30.0433 48.554 22.7579 49.4215 14.1715 48.2939C14.1715 48.2939 17.4672 33.8096 29.3496 23.8357C41.2317 13.8615 53.2873 11.7801 61.6134 11.7801C69.9398 11.7801 81.5618 13.688 94.8316 26.2641C94.8316 26.2641 100.296 31.7282 102.464 36.1514C102.464 36.1514 102.919 37.0932 103.446 36.8494C103.974 36.6059 103.136 35.7392 102.919 35.4283C99.5403 30.5908 97.3562 25.7653 86.475 18.4975C86.475 18.4975 76.0402 10.9859 60.8144 11.1078C60.8144 11.1078 44.3302 10.1334 29.8353 22.2328C29.8353 22.2328 23.9886 26.9832 19.8472 33.5608C19.8472 33.5608 15.8682 38.8795 13.229 48.0964L12.7012 48.0557C12.7012 48.0557 16.4366 32.2209 29.6321 21.6642C29.6321 21.6642 35.8443 16.0207 46.5226 12.6101C46.5226 12.6101 53.7091 10.3769 60.6927 10.3769C60.6927 10.3769 74.2537 9.84919 86.7592 17.8882C86.7592 17.8882 96.3412 23.4507 103.487 35.3067L104.34 36.8088C104.34 36.8088 106.411 37.418 106.573 36.8088C106.573 36.8088 106.371 36.5126 106.107 35.9779Z" fill="#2C9444"/>
<path d="M13.1744 82.9122C13.1744 82.9122 22.8312 104.053 49.0176 109.36C49.0176 109.36 68.0702 113.971 86.5138 102.313C86.5138 102.313 106.088 89.5243 109.307 68.7317C109.307 68.7317 97.4755 65.7737 76.5091 70.2105C55.5425 74.6476 46.0597 78.1274 34.663 79.3453C34.663 79.3453 22.9182 80.7373 14.6534 79.7805C14.6534 79.7805 11.7825 79.4325 11.7825 80.2155C11.7825 80.9984 15.2624 81.0853 15.2624 81.0853C15.2624 81.0853 28.051 82.8253 53.0195 77.0835C53.0195 77.0835 72.5942 71.7765 89.4718 70.2977C89.4718 70.2977 96.7797 69.4275 105.392 70.5586C105.392 70.5586 102.086 85.0872 90.1676 95.0921C78.2489 105.097 66.1562 107.185 57.8044 107.185C49.4526 107.185 37.795 105.271 24.4842 92.656C24.4842 92.656 19.0033 87.1753 16.8284 82.7382C16.8284 82.7382 16.3721 81.7937 15.8427 82.0381C15.3133 82.2824 16.1545 83.152 16.3721 83.4637C19.7609 88.3162 21.9517 93.1567 32.8666 100.447C32.8666 100.447 43.3332 107.981 58.6058 107.859C58.6058 107.859 75.141 108.836 89.6806 96.6998C89.6806 96.6998 95.5452 91.9347 99.6991 85.3371C99.6991 85.3371 103.691 80.0019 106.338 70.7569L106.867 70.7976C106.867 70.7976 103.12 86.681 89.884 97.2701C89.884 97.2701 83.6529 102.931 72.9417 106.352C72.9417 106.352 65.733 108.592 58.728 108.592C58.728 108.592 45.1253 109.121 32.5813 101.058C32.5813 101.058 22.9698 95.4781 15.802 83.5859L14.9467 82.079C14.9467 82.079 12.8696 81.4681 12.7067 82.079C12.7067 82.079 12.9094 82.3762 13.1744 82.9122Z" fill="#2C9444"/>
<path d="M58.2976 31.0189C57.8106 31.0641 57.3273 31.1219 56.8474 31.1908V42.6949C57.3452 42.5832 57.8298 42.4733 58.2976 42.3659V31.0189Z" fill="#ED1C24"/>
<path d="M55.5806 31.4035C55.0927 31.4954 54.6094 31.5991 54.1304 31.7152V43.2909C54.6238 43.185 55.1082 43.08 55.5806 42.9763V31.4035Z" fill="#ED1C24"/>
<path d="M52.7996 32.071C52.3107 32.214 51.8273 32.3688 51.3494 32.5361V43.8723C51.8402 43.7723 52.3238 43.6724 52.7996 43.5726V32.071Z" fill="#ED1C24"/>
<path d="M50.0504 33.0256C49.5606 33.224 49.0765 33.4333 48.6001 33.6568V44.4175C49.0893 44.3231 49.5726 44.2282 50.0504 44.1333V33.0256Z" fill="#ED1C24"/>
<path d="M47.5252 34.1917C47.0339 34.4473 46.5495 34.7144 46.075 34.9964V44.8931C46.5623 44.804 47.0462 44.7145 47.5252 44.6241V34.1917Z" fill="#ED1C24"/>
<path d="M44.6802 35.8742C44.1854 36.2071 43.7031 36.5573 43.2302 36.919V45.3932C43.7162 45.3106 44.1998 45.2272 44.6802 45.1424V35.8742Z" fill="#ED1C24"/>
<path d="M41.899 38.0024C41.4015 38.4307 40.9166 38.8733 40.4487 39.3337V45.8452C40.9339 45.7696 41.4173 45.6926 41.899 45.614V38.0024Z" fill="#ED1C24"/>
<path d="M39.2459 40.5828C38.739 41.1434 38.2589 41.7281 37.7959 42.3266V46.2413C38.28 46.1729 38.7633 46.1023 39.2459 46.0301V40.5828Z" fill="#ED1C24"/>
<path d="M36.4971 44.1384C35.9758 44.9284 35.4917 45.7445 35.0469 46.5852V46.6074C35.5302 46.5473 36.0135 46.4855 36.4971 46.4208V44.1384Z" fill="#ED1C24"/>
<path d="M60.9188 30.8897C60.4325 30.8919 59.9489 30.9044 59.4685 30.9298V42.095C59.9767 41.976 60.4574 41.8619 60.9188 41.7515V30.8897Z" fill="#ED1C24"/>
<path d="M63.604 31.0041C63.1237 30.9627 62.6403 30.9325 62.1538 30.9146V41.4536C62.6828 41.3245 63.1643 41.205 63.604 41.0949V31.0041Z" fill="#ED1C24"/>
<path d="M66.2891 31.3614C65.8095 31.2751 65.3262 31.2005 64.8389 31.1379V40.782C65.6005 40.5868 66.1004 40.454 66.2891 40.4035V31.3614Z" fill="#ED1C24"/>
<path d="M68.8785 31.9493C68.3997 31.817 67.9164 31.6967 67.4282 31.5884V40.1437C67.9145 40.0346 68.4019 39.9245 68.8785 39.821V31.9493Z" fill="#ED1C24"/>
<path d="M71.5206 32.8157C71.0426 32.6331 70.5595 32.462 70.0703 32.304V39.5688C70.5585 39.4659 71.0426 39.3651 71.5206 39.2678V32.8157Z" fill="#ED1C24"/>
<path d="M74.2168 34.0041C73.7402 33.7646 73.2577 33.5363 72.7666 33.3224V39.0167C73.2571 38.9205 73.7375 38.8293 74.2168 38.7392V34.0041Z" fill="#ED1C24"/>
<path d="M76.8699 35.5161C76.3952 35.2118 75.9124 34.9199 75.4197 34.643V38.5144C75.9094 38.4257 76.3925 38.3398 76.8699 38.2572V35.5161Z" fill="#ED1C24"/>
<path d="M79.459 37.3774C78.9877 36.9978 78.5036 36.6337 78.009 36.2835V38.0649C78.498 37.9834 78.9837 37.9035 79.459 37.8286V37.3774Z" fill="#ED1C24"/>
<path d="M60.9189 29.848C68.7267 29.848 75.8462 32.7838 81.2429 37.6071C82.0521 37.4884 82.8357 37.381 83.6024 37.2802C77.7613 31.5399 69.7557 27.9949 60.9189 27.9949C47.7841 27.9949 36.4848 35.823 31.4102 47.0646C32.1258 46.994 32.8446 46.9167 33.5659 46.8339C38.5536 36.7698 48.9256 29.848 60.9189 29.848Z" fill="#2C9444"/>
<path d="M61.1304 87.8865C61.6188 87.841 62.1037 87.7833 62.5849 87.7141V76.1744C62.0858 76.2866 61.5995 76.3968 61.1304 76.5045V87.8865Z" fill="#ED1C24"/>
<path d="M63.8555 87.501C64.3447 87.4087 64.8296 87.3048 65.3103 87.1885V75.5772C64.8154 75.6833 64.3294 75.7886 63.8555 75.8926V87.501Z" fill="#ED1C24"/>
<path d="M66.645 86.8313C67.1353 86.688 67.6205 86.533 68.0998 86.3651V74.9938C67.6074 75.0941 67.1222 75.1943 66.645 75.2943V86.8313Z" fill="#ED1C24"/>
<path d="M69.4028 85.8745C69.8942 85.6756 70.3794 85.4655 70.8574 85.2412V74.4477C70.3668 74.5423 69.8822 74.6372 69.4028 74.7326V85.8745Z" fill="#ED1C24"/>
<path d="M71.9358 84.7053C72.4287 84.449 72.9145 84.1811 73.3906 83.8983V73.9711C72.9017 74.0604 72.4162 74.1502 71.9358 74.2408V84.7053Z" fill="#ED1C24"/>
<path d="M74.7896 83.0171C75.286 82.6832 75.7698 82.3319 76.2443 81.9692V73.469C75.7567 73.5516 75.2715 73.6353 74.7896 73.7203V83.0171Z" fill="#ED1C24"/>
<path d="M77.5791 80.8818C78.0782 80.4522 78.5644 80.0085 79.0339 79.5465V73.0153C78.5471 73.0909 78.0624 73.1682 77.5791 73.247V80.8818Z" fill="#ED1C24"/>
<path d="M80.2405 78.2941C80.7489 77.7319 81.2304 77.1454 81.695 76.5449V72.6182C81.2093 72.6866 80.7246 72.7577 80.2405 72.8299V78.2941Z" fill="#ED1C24"/>
<path d="M82.998 74.7279C83.5209 73.9356 84.0064 73.1167 84.4526 72.2736V72.2511C83.9679 72.3115 83.483 72.3736 82.998 72.4385V74.7279Z" fill="#ED1C24"/>
<path d="M58.5007 88.0161C58.9886 88.0137 59.4738 88.0011 59.9555 87.9755V76.7764C59.446 76.8956 58.9637 77.0101 58.5007 77.1207V88.0161Z" fill="#ED1C24"/>
<path d="M55.8076 87.9036C56.2893 87.9453 56.7743 87.9755 57.2624 87.9934V77.422C56.7315 77.5514 56.2487 77.6711 55.8076 77.7815V87.9036Z" fill="#ED1C24"/>
<path d="M53.114 87.5442C53.5949 87.6311 54.0799 87.7057 54.5685 87.7688V78.0948C53.8048 78.2908 53.3033 78.4239 53.114 78.4747V87.5442Z" fill="#ED1C24"/>
<path d="M50.5168 86.9548C50.9972 87.0874 51.4819 87.2082 51.9716 87.3168V78.7351C51.4838 78.8447 50.9951 78.9551 50.5168 79.0588V86.9548Z" fill="#ED1C24"/>
<path d="M47.8669 86.0863C48.3463 86.2695 48.8307 86.4414 49.3215 86.5996V79.3123C48.832 79.4158 48.3463 79.5168 47.8669 79.6144V86.0863Z" fill="#ED1C24"/>
<path d="M45.1624 84.8941C45.6403 85.1344 46.1245 85.3635 46.6169 85.5779V79.8659C46.1247 79.9627 45.643 80.0541 45.1624 80.1445V84.8941Z" fill="#ED1C24"/>
<path d="M42.5007 83.3772C42.9768 83.6822 43.4612 83.9752 43.9555 84.2529V80.3695C43.4642 80.4588 42.9795 80.5446 42.5007 80.6278V83.3772Z" fill="#ED1C24"/>
<path d="M39.9038 81.5087C40.3767 81.8894 40.8622 82.2545 41.3583 82.6061V80.819C40.8678 80.9008 40.3807 80.9808 39.9038 81.0561V81.5087Z" fill="#ED1C24"/>
<path d="M58.5008 89.0627C50.6692 89.0627 43.5278 86.1176 38.1145 81.2795C37.3026 81.3985 36.5167 81.5065 35.7476 81.6072C41.6068 87.3654 49.637 90.9211 58.5008 90.9211C71.6762 90.9211 83.0103 83.069 88.1004 71.7929C87.3827 71.8638 86.6617 71.9413 85.938 72.0241C80.935 82.1192 70.5312 89.0627 58.5008 89.0627Z" fill="#2C9444"/>
<path d="M15.0439 57.97L15.1801 62.8511C15.1801 62.8511 15.0804 63.3863 15.7439 63.3376C16.4071 63.289 16.8495 63.2564 16.8495 63.2564C16.8495 63.2564 18.1425 63.0781 17.9506 60.466C17.7588 57.854 16.8892 57.5287 16.2594 57.5749C15.6296 57.6212 15.4361 57.6353 15.4361 57.6353C15.4361 57.6353 15.0152 57.58 15.0439 57.97ZM10.6671 53.6228L16.1954 53.2167C19.849 52.9483 21.0707 54.2683 21.0707 54.2683C22.5019 55.5657 22.8884 59.0102 22.5462 63.4432C22.2039 67.8763 18.5679 67.4756 18.5679 67.4756L16.3093 67.6416C15.1136 67.7293 15.2989 68.3837 15.2989 68.3837L15.8712 76.2262C16.0112 77.2215 15.1422 77.2111 15.1422 77.2111C15.1422 77.2111 12.2284 77.4252 11.2561 77.4966C10.7072 77.5367 10.8029 76.3276 10.8029 76.3276L9.90256 54.0671C9.8749 53.6904 10.6671 53.6228 10.6671 53.6228Z" fill="#ED1C24"/>
<path d="M31.5398 72.3967C30.2342 72.7688 30.1893 70.8446 30.1893 70.8446L29.2103 59.0485C29.1218 57.0682 30.2425 57.0703 30.2425 57.0703C31.2776 56.9153 31.4201 58.2597 31.4201 58.2597L32.5835 69.8266C32.65 70.8122 32.8457 72.0243 31.5398 72.3967ZM37.3224 69.1313L36.5607 58.3786C36.5607 58.3786 36.0424 51.7928 29.8549 52.4544C29.8549 52.4544 23.6907 52.8931 24.2926 59.9738L25.1484 70.2805C25.1484 70.2805 25.4204 77.8482 31.9734 76.8581C31.9734 76.8581 37.8479 76.568 37.3224 69.1313Z" fill="#ED1C24"/>
<path d="M88.8172 61.7428C87.5675 62.135 87.4875 60.2415 87.4875 60.2415L86.3201 48.6486C86.1974 46.7006 87.2761 46.6808 87.2761 46.6808C88.2692 46.5079 88.432 47.8285 88.432 47.8285L89.7726 59.1925C89.8555 60.1613 90.067 61.3507 88.8172 61.7428ZM94.3209 58.4149L93.3826 47.8445C93.3826 47.8445 92.7579 41.3715 86.8147 42.1446C86.8147 42.1446 80.8899 42.6977 81.6042 49.6562L82.6248 59.7855C82.6248 59.7855 83.0309 67.23 89.3195 66.1264C89.3195 66.1264 94.9684 65.7252 94.3209 58.4149Z" fill="#ED1C24"/>
<path d="M48.3541 50.3909L36.9673 52.2775L37.8283 56.9412L43.4676 55.8628L43.7061 56.1796L39.4532 71.4097L39.9857 74.6717C39.9857 74.6717 39.8806 75.7091 40.6887 75.4977L51.9608 73.2965L51.2797 68.6801L44.7569 69.9688L49.0403 54.8286L48.3541 50.3909Z" fill="#ED1C24"/>
<path d="M49.2083 49.8838L53.9814 72.6881L58.8347 71.5498L53.9814 48.7833L49.2083 49.8838Z" fill="#ED1C24"/>
<path d="M65.8027 46.3142L55.6272 48.4065L56.4837 53.0364L59.0062 52.6142L62.7151 70.6526L67.5184 69.621L63.9873 51.5874L66.7229 50.7676L65.8027 46.3142Z" fill="#ED1C24"/>
<path d="M74.2937 53.4274L73.0605 53.6982L72.1502 48.9417C74.461 48.0985 74.8291 50.4034 74.8291 50.4034C75.4798 53.6025 74.2937 53.4274 74.2937 53.4274ZM82.5845 65.583C82.5845 65.583 82.2225 65.706 81.0958 58.1318C81.0958 58.1318 80.6662 55.0038 77.905 54.6381C77.905 54.6381 80.7314 53.1109 79.4469 48.8251C78.1624 44.5396 76.6587 44.0352 73.2383 44.6179L66.6882 45.9051L70.9213 68.7471L75.6677 67.6759L73.9256 58.4721C73.9256 58.4721 73.5959 57.6487 74.6668 57.7306C75.7378 57.8124 76.0674 58.636 76.3355 59.9536C76.6034 61.2716 77.2746 65.1751 77.6858 66.227C78.0969 67.2789 78.5099 67.2931 79.3822 67.1426L82.4564 66.7066C82.4564 66.7066 83.5923 66.2043 82.5845 65.583Z" fill="#ED1C24"/>
<path d="M95.1562 42.2491L95.6473 65.6925L100.5 65.4567L99.9898 52.0522L104.075 65.2469L108.981 65.2447L108.393 42.2729L103.696 42.1577L104.309 55.0075L100.263 42.2579L95.1562 42.2491Z" fill="#ED1C24"/>
<path d="M49.8387 100.044L50.2961 95.2218L50.2659 95.2164L48.9413 99.8757L49.8387 100.044ZM52.5996 93.9207L51.9749 104.828L49.5067 104.364L49.7144 101.693L48.3687 101.44L47.4726 103.982L45.3792 103.588L49.1901 93.2799L52.5996 93.9207Z" fill="#2C9444"/>
<path d="M60.1713 104.466C59.9026 104.774 59.5409 104.978 59.1474 105.092C58.7694 105.22 58.3591 105.258 57.9939 105.265C56.3359 105.293 55.3955 104.625 55.3525 102.146L55.2656 97.217C55.222 94.737 56.7313 94.0259 58.4048 93.9965C60.4432 93.9609 61.5988 94.7621 61.6667 96.8914L61.6715 98.0326L59.1461 98.0767L59.1199 96.5702C59.1119 96.1297 58.9675 95.7215 58.435 95.7309C57.9027 95.7397 57.7728 96.153 57.7803 96.5941L57.888 102.679C57.8953 103.121 58.0246 103.529 58.5716 103.52C59.1044 103.51 59.2343 103.097 59.2263 102.656L59.2009 101.211L58.2428 101.227L58.2139 99.5843L61.6974 99.5235L61.7934 104.984L60.3178 105.011L60.1713 104.466Z" fill="#2C9444"/>
<path d="M66.348 97.6882C67.4624 97.4429 67.5589 97.0328 67.3395 96.0372C67.1235 95.0567 66.8783 94.7212 65.7497 94.9704L66.348 97.6882ZM65.2805 104.575L62.9497 93.9981L65.4302 93.4517C67.7771 92.9344 69.226 92.8644 69.7171 95.0923C70.0084 96.4147 69.6486 97.398 68.3609 97.9152L68.3673 97.9444C69.562 97.7121 70.3586 98.0039 70.6925 99.5191L71.1801 101.733C71.2718 102.149 71.4836 102.756 71.8755 103.121L69.3949 103.668C69.003 103.302 68.8057 102.692 68.7146 102.276L68.22 100.033C68.0562 99.2903 67.5287 99.0171 67.0828 99.1152L66.6821 99.2034L67.7458 104.032L65.2805 104.575Z" fill="#2C9444"/>
<path d="M76.2946 98.8733C76.4751 99.2756 76.7678 99.5947 77.254 99.3777C77.74 99.1601 77.6975 98.7295 77.5176 98.3266L75.0336 92.771C74.8532 92.3682 74.5607 92.0487 74.0747 92.2666C73.5887 92.4836 73.6313 92.9148 73.8112 93.3177L76.2946 98.8733ZM79.5867 96.7677C80.5991 99.0318 79.4897 100.278 77.9614 100.961C76.4339 101.644 74.7655 101.64 73.7532 99.376L71.7415 94.8754C70.7297 92.612 71.8391 91.3662 73.3666 90.6824C74.8944 89.9996 76.5633 90.0037 77.5751 92.2682L79.5867 96.7677Z" fill="#2C9444"/>
<path d="M28.2778 36.1961L29.0739 35.1455L26.9807 34.3916L28.2778 36.1961ZM30.6957 36.3856L31.089 35.867L30.1637 35.5334L28.9512 37.1333L29.5224 37.934L29.9387 37.3846L30.8794 38.0976L29.3837 40.0715L28.4427 39.3586L28.7368 38.9707L25.5476 34.3216L26.5907 32.9449L31.9059 34.7892L32.1919 34.4117L33.1324 35.1244L31.6364 37.0986L30.6957 36.3856Z" fill="#2C9444"/>
<path d="M33.6483 27.5616L33.9349 32.6301L35.282 31.371L34.5907 30.6316L35.6129 29.6754L37.1784 31.3494L33.5564 34.7356L32.636 33.7505L32.2898 28.7317L31.0026 29.935L31.7086 30.6901L30.6826 31.649L29.1033 29.9595L32.7247 26.5736L33.6483 27.5616Z" fill="#2C9444"/>
<path d="M34.3438 25.283L38.652 22.3806L39.8961 24.2273L38.7316 25.0122L38.2144 24.2441L36.8245 25.1803L37.5439 26.2486L38.6194 25.5241L39.3176 26.56L38.2419 27.2844L39.0867 28.5382L40.4768 27.602L39.8293 26.641L40.9935 25.8564L42.3004 27.7964L37.9925 30.6987L37.333 29.7201L37.9011 29.3372L35.6387 25.9794L35.0706 26.3619L34.3438 25.283Z" fill="#2C9444"/>
<path d="M42.8601 21.5849L43.5095 23.0261L44.2911 22.674C44.4406 22.6069 44.5684 22.5323 44.675 22.4513C44.7819 22.37 44.8646 22.281 44.9231 22.1837C44.9814 22.0864 45.0137 21.983 45.0196 21.8733C45.0247 21.7637 45.0004 21.6475 44.945 21.5242C44.841 21.2941 44.6777 21.1516 44.4547 21.0976C44.2323 21.0438 43.9613 21.0887 43.6418 21.2326L42.8601 21.5849ZM40.4531 21.3705L43.6025 19.951C43.9091 19.8128 44.2029 19.7355 44.4855 19.7184C44.7672 19.7019 45.0252 19.7326 45.2597 19.8115C45.4936 19.8903 45.6999 20.0114 45.8791 20.1748C46.0582 20.3384 46.1974 20.5298 46.2966 20.7495C46.3875 20.9511 46.4455 21.1379 46.4707 21.309C46.496 21.4804 46.4939 21.6434 46.4642 21.7985C46.4351 21.9533 46.3808 22.1032 46.3009 22.2479C46.221 22.3925 46.1207 22.5363 45.9991 22.6791C46.1635 22.6871 46.3279 22.7381 46.4931 22.832C46.6586 22.9261 46.8171 23.0726 46.9703 23.2715L47.5188 23.955L48.0097 23.7337L48.5398 24.8888L46.812 25.6672L45.9389 24.3597C45.8398 24.2031 45.739 24.0745 45.6358 23.9745C45.5323 23.8746 45.4227 23.8042 45.3067 23.7636C45.1907 23.7232 45.0661 23.7107 44.9335 23.7265C44.8004 23.7425 44.6536 23.7863 44.4943 23.858L43.9875 24.0865L44.5716 25.3825L45.1172 25.1366L45.6024 26.2126L43.1363 27.3239L42.6511 26.2479L43.2678 25.9701L41.5564 22.1725L40.9397 22.4505L40.4531 21.3705Z" fill="#2C9444"/>
<path d="M50.73 21.5052L51.1128 22.9765L52.1634 22.7038C52.2436 22.683 52.3141 22.6424 52.3743 22.5825C52.4342 22.5221 52.4812 22.4518 52.5146 22.37C52.5486 22.2884 52.5689 22.1986 52.5761 22.1005C52.5831 22.0021 52.5742 21.9045 52.5486 21.807C52.5219 21.7043 52.4823 21.6132 52.4291 21.5335C52.3751 21.4538 52.3141 21.3883 52.2441 21.3367C52.1743 21.2849 52.0989 21.2499 52.0185 21.2303C51.9377 21.2114 51.8589 21.2119 51.7811 21.2322L50.73 21.5052ZM50.0654 18.9452L50.4335 20.3626L51.4261 20.1049C51.5039 20.0849 51.5723 20.0461 51.6317 19.9894C51.6907 19.9325 51.7378 19.8646 51.7723 19.7857C51.8068 19.7071 51.8287 19.6229 51.838 19.5331C51.8474 19.443 51.8404 19.3537 51.8172 19.2647C51.7947 19.1784 51.757 19.0963 51.7044 19.018C51.6509 18.9399 51.59 18.8725 51.5204 18.8164C51.4509 18.7603 51.3758 18.7199 51.2954 18.6948C51.2146 18.6696 51.1352 18.6672 51.058 18.6873L50.0654 18.9452ZM49.0822 23.504L49.728 23.3363L48.6812 19.3045L48.0348 19.4724L47.7351 18.3178L50.8182 17.5257C51.1045 17.4514 51.3796 17.4341 51.6437 17.4739C51.9073 17.5137 52.1481 17.5979 52.3657 17.727C52.5831 17.8559 52.7699 18.024 52.926 18.231C53.0822 18.4384 53.1944 18.6726 53.2623 18.9338C53.3417 19.2396 53.3538 19.5064 53.299 19.7341C53.2439 19.9622 53.1332 20.1629 52.9678 20.3367C53.211 20.4155 53.4185 20.5374 53.5901 20.7021C53.762 20.8668 53.8847 21.0895 53.9571 21.3702C54.032 21.6565 54.0507 21.9318 54.0141 22.1965C53.9777 22.4614 53.8962 22.7025 53.7703 22.9206C53.6446 23.1388 53.4775 23.3259 53.2685 23.4826C53.0602 23.6392 52.821 23.7526 52.5518 23.8223L49.3786 24.6462L49.0822 23.504Z" fill="#2C9444"/>
<path d="M57.1417 19.7848L58.4548 19.6715L57.6109 17.6128L57.1417 19.7848ZM58.6219 21.7066L59.2696 21.6502L58.8975 20.74L56.8971 20.9129L56.6862 21.8737L57.373 21.8143L57.4748 22.99L55.0071 23.2034L54.9053 22.0274L55.3905 21.9854L56.7025 16.5023L58.4233 16.3537L60.6175 21.5342L61.0893 21.4933L61.1912 22.6693L58.7238 22.8823L58.6219 21.7066Z" fill="#2C9444"/>
<path d="M62.3707 16.26L65.1624 16.4048L65.1015 17.5838L64.4128 17.5479L64.1971 21.7121L64.8852 21.7479L64.8242 22.9263L62.0322 22.7816L62.0934 21.603L62.7685 21.638L62.9847 17.4739L62.3097 17.4386L62.3707 16.26Z" fill="#2C9444"/>
<path d="M66.6462 16.5722L69.0877 16.9361L68.895 18.2313L68.4435 18.1639L67.7835 22.5948C67.6864 22.8157 67.5642 23.0129 67.4164 23.187C67.2686 23.361 67.1256 23.5174 66.9873 23.6564C66.8489 23.7957 66.6583 23.9689 66.4155 24.1769L65.2361 23.9358C65.4417 23.705 65.6047 23.5136 65.7248 23.3618C65.8443 23.2097 65.9675 23.041 66.0939 22.8552C66.2201 22.6692 66.3273 22.4665 66.4155 22.2473L67.0542 17.957L66.4538 17.8674L66.6462 16.5722Z" fill="#2C9444"/>
<path d="M71.8748 20.9727L73.1403 21.3422L73.0986 19.1178L71.8748 20.9727ZM72.5597 23.2998L73.1841 23.4821L73.1665 22.4984L71.2394 21.9362L70.6953 22.7555L71.3567 22.9485L71.0258 24.0815L68.6484 23.3878L68.9791 22.2546L69.4464 22.3909L72.6532 17.7539L74.3109 18.2377L74.4828 23.8609L74.9375 23.9938L74.6071 25.1267L72.2293 24.4327L72.5597 23.2998Z" fill="#2C9444"/>
<path d="M81.9845 21.5089L84.1867 22.6518L83.6411 23.7032L83.1714 23.4591L80.7091 28.2039L79.4398 27.5452L78.9715 22.5464L77.5709 25.2459L78.0567 25.4977L77.5127 26.5454L75.3145 25.4047L75.8579 24.357L76.3356 24.6051L78.254 20.9077L77.784 20.6637L78.3296 19.6125L80.0809 20.5209L80.5081 25.5613L81.9324 22.8164L81.4389 22.5603L81.9845 21.5089Z" fill="#2C9444"/>
</g>
<defs>
<clipPath id="clip0">
<rect width="120" height="120" fill="white"/>
</clipPath>
</defs>
</svg>
